<?xml version="1.0" encoding="utf-8"?>
<!-- Generator: Adobe Illustrator 19.0.0, SVG Export Plug-In . SVG Version: 6.00 Build 0)  -->
<svg version="1.1" id="Layer_2" xmlns="http://www.w3.org/2000/svg" xmlns:xlink="http://www.w3.org/1999/xlink" x="0px" y="0px"
	 viewBox="329 43.3 1500 510" style="enable-background:new 329 43.3 1500 510;" xml:space="preserve">
<style type="text/css">
	.st0{fill:#F5F5F5;}
</style>
<path class="st0" d="M329,43.3v510h1500v-510H329z M979.1,355l-15.4,2.7c-20.1,3.4-24.1,10.1-24.1,46.3v37.6
	c0,28.2,1.3,41.6,14.1,44.3c2.7,2.7,2,14.1-2,16.1c-11.4,2-28.8,4-47,10.1c-23.5,7.4-81.2,16.1-118.7,16.1
	c-45.6,0-84.5-4.7-132.2-23.5c-78.5-31.5-132.2-106-132.2-202.6c0-83.9,37.6-157.7,118.1-202.6c45.6-24.8,100-35.6,157-35.6
	c74.5,0,111.4,16.1,132.8,16.1c2,20.1,2.7,67.1,9.4,108c-2.7,7.4-20.8,8-25.5,1.3c-21.5-63.1-63.7-94.6-126.1-94.6
	c-106.7,0-158.3,88.6-158.3,194.6c0,95.9,32.9,153,76.5,182.5c32.2,21.5,67.1,25.5,91.9,25.5c38.2,0,46.3-7.4,46.3-51V404
	c0-36.2-4-40.3-36.2-45l-29.5-4c-7.4-4-7.4-19.5,0-23.5c47.6,1.3,80.5,2,113.4,2c32.2,0,65.1-0.7,87.9-2
	C984.4,335.6,984.4,351,979.1,355z M1194.5,492.5l18.8,3.4c5.4,4,4.7,19.5-0.7,23.5c-36.2-1.3-69.1-2-100.6-2
	c-32.2,0-65.7,0.7-102,2c-5.4-4-5.4-19.5,0-23.5l18.8-3.4c30.9-5.4,34.9-10.1,34.9-73.1V172.5c0-63.1-4-67.8-34.9-73.1l-18.8-3.4
	c-5.4-4-5.4-19.5,0-23.5c36.2,1.3,69.8,2,102,2c31.5,0,65.1-0.7,101.3-2c5.4,4,5.4,19.5,0,23.5l-18.8,3.4
	c-30.9,5.4-34.9,10.1-34.9,73.1v246.9C1159.6,482.5,1163.6,487.2,1194.5,492.5z M1664.7,503.3c-36.2,10.1-83.9,24.8-136.2,24.8
	c-65.7,0-132.8-15.4-180.5-51c-48.3-36.9-85.2-92.6-85.2-175.8c0-81.8,34.9-139.5,81.2-177.8c47.6-39.6,116.1-59.7,185.8-59.7
	c68.4,0,118.1,16.1,138.2,17.4c0,12.1,2,65.7,8.1,104.7c-2.7,8.1-20.8,10.7-25.5,4.7c-18.1-62.4-61.1-95.9-126.1-95.9
	c-74.5,0-154.3,63.7-154.3,197.2s77.1,205.3,157.7,205.3c81.2,0,118.7-58.4,136.9-104c5.4-5.4,21.5-3.4,25.5,4.7
	C1685.5,447.6,1674.1,487.8,1664.7,503.3z"/>
</svg>
