<?xml version="1.0" encoding="utf-8"?>
<!-- Generator: Adobe Illustrator 19.0.0, SVG Export Plug-In . SVG Version: 6.00 Build 0)  -->
<svg version="1.1" id="Layer_2" xmlns="http://www.w3.org/2000/svg" xmlns:xlink="http://www.w3.org/1999/xlink" x="0px" y="0px"
	 viewBox="444 142 1500 510" style="enable-background:new 444 142 1500 510;" xml:space="preserve">
<style type="text/css">
	.st0{fill:#F5F5F5;}
</style>
<g>
	<path class="st0" d="M444,142v510h1500V142H444z M1321.5,320h-70.6l-9.8-63.1c-9.3-9.3-21.1-16.7-35.3-22.1
		c-14.2-5.4-31-8.1-50.3-8.1c-41.2,0-72.9,15-95.2,44.9c-22.2,29.9-33.4,69-33.4,117.2v16.6c0,48.2,11.1,87.3,33.2,117.5
		c22.1,30.2,53.4,45.2,93.7,45.2c18.7,0,35.7-2.7,51.3-8.1c15.5-5.4,27.5-12.8,36-22.1l9.8-63.1h70.6v93.7
		c-19.1,22.1-43.4,39.8-73.1,52.9c-29.6,13.1-62.8,19.7-99.4,19.7c-63.6,0-115.6-22-156.2-66.1c-40.6-44-60.9-100.6-60.9-169.5
		v-15.9c0-68.8,20.2-125.3,60.5-169.5c40.4-44.3,92.5-66.4,156.5-66.4c36.7,0,69.7,6.7,99.3,20c29.5,13.3,53.9,31,73.2,52.9V320z
		 M1404.6,256.4c-28.5,0-51.5-23.1-51.5-51.5s23.1-51.5,51.5-51.5s51.5,23.1,51.5,51.5S1433,256.4,1404.6,256.4z"/>
	<circle class="st0" cx="1404.6" cy="204.9" r="22.7"/>
</g>
</svg>
