<?xml version="1.0" encoding="utf-8"?>
<!-- Generator: Adobe Illustrator 19.0.0, SVG Export Plug-In . SVG Version: 6.00 Build 0)  -->
<svg version="1.1" id="Layer_2" xmlns="http://www.w3.org/2000/svg" xmlns:xlink="http://www.w3.org/1999/xlink" x="0px" y="0px"
	 viewBox="329 43.3 1500 510" style="enable-background:new 329 43.3 1500 510;" xml:space="preserve">
<style type="text/css">
	.st0{fill:#F5F5F5;}
</style>
<g>
	<path class="st0" d="M329,595.3v510h1500v-510H329z M1206.5,773.3h-70.6l-9.8-63.1c-9.3-9.3-21.1-16.7-35.3-22.1
		c-14.2-5.4-31-8.1-50.3-8.1c-41.2,0-72.9,15-95.2,44.9c-22.2,29.9-33.4,69-33.4,117.2v16.6c0,48.2,11.1,87.3,33.2,117.5
		s53.4,45.2,93.7,45.2c18.7,0,35.7-2.7,51.3-8.1c15.5-5.4,27.5-12.8,36-22.1l9.8-63.1h70.6v93.7c-19.1,22.1-43.4,39.8-73.1,52.9
		c-29.6,13.1-62.8,19.7-99.4,19.7c-63.6,0-115.6-22-156.2-66.1c-40.6-44-60.9-100.6-60.9-169.5v-15.9c0-68.8,20.2-125.3,60.5-169.5
		c40.4-44.3,92.5-66.4,156.5-66.4c36.7,0,69.7,6.7,99.3,20c29.5,13.3,53.9,31,73.2,52.9v93.4H1206.5z M1289.6,709.7
		c-28.5,0-51.5-23.1-51.5-51.5c0-28.4,23.1-51.5,51.5-51.5s51.5,23.1,51.5,51.5C1341.1,686.6,1318,709.7,1289.6,709.7z"/>
	<circle class="st0" cx="1289.6" cy="658.2" r="22.7"/>
</g>
<path class="st0" d="M329,43.3v510h1500v-510H329z M993.6,338l-10.4,1.8c-13.5,2.3-16.3,6.8-16.3,31.2v25.3c0,19,0.9,28,9.5,29.8
	c1.8,1.8,1.4,9.5-1.4,10.8c-7.7,1.4-19.4,2.7-31.6,6.8c-15.8,5-54.7,10.8-79.9,10.8c-30.7,0-56.9-3.2-89-15.8
	c-52.8-21.2-89-71.4-89-136.4c0-56.5,25.3-106.1,79.5-136.4c30.7-16.7,67.3-23.9,105.7-23.9c50.1,0,75,10.8,89.4,10.8
	c1.4,13.5,1.8,45.2,6.3,72.7c-1.8,5-14,5.4-17.2,0.9c-14.5-42.5-42.9-63.7-84.9-63.7c-71.8,0-106.6,59.6-106.6,131
	c0,64.6,22.1,103,51.5,122.8c21.7,14.5,45.2,17.2,61.9,17.2c25.7,0,31.2-5,31.2-34.3V371c0-24.4-2.7-27.1-24.4-30.3l-19.9-2.7
	c-5-2.7-5-13.1,0-15.8c32.1,0.9,54.2,1.4,76.3,1.4c21.7,0,43.8-0.5,59.2-1.4C997.2,324.9,997.2,335.3,993.6,338z M1138.6,430.6
	l12.6,2.3c3.6,2.7,3.2,13.1-0.5,15.8c-24.4-0.9-46.5-1.4-67.7-1.4c-21.7,0-44.3,0.5-68.7,1.4c-3.6-2.7-3.6-13.1,0-15.8l12.6-2.3
	c20.8-3.6,23.5-6.8,23.5-49.2V215.2c0-42.5-2.7-45.6-23.5-49.2l-12.6-2.3c-3.6-2.7-3.6-13.1,0-15.8c24.4,0.9,47,1.4,68.7,1.4
	c21.2,0,43.8-0.5,68.2-1.4c3.6,2.7,3.6,13.1,0,15.8l-12.6,2.3c-20.8,3.6-23.5,6.8-23.5,49.2v166.2
	C1115.1,423.8,1117.8,427,1138.6,430.6z M1455.2,437.8c-24.4,6.8-56.5,16.7-91.7,16.7c-44.3,0-89.4-10.4-121.5-34.3
	c-32.5-24.8-57.4-62.3-57.4-118.3c0-55.1,23.5-93.9,54.6-119.7c32.1-26.6,78.1-40.2,125.1-40.2c46.1,0,79.5,10.8,93,11.7
	c0,8.1,1.4,44.3,5.4,70.5c-1.8,5.4-14,7.2-17.2,3.2c-12.2-42-41.1-64.6-84.9-64.6c-50.1,0-103.9,42.9-103.9,132.8
	s51.9,138.2,106.1,138.2c54.6,0,79.9-39.3,92.1-70c3.6-3.6,14.5-2.3,17.2,3.2C1469.2,400.3,1461.5,427.4,1455.2,437.8z"/>
</svg>
